<svg width="93" height="39" viewBox="0 0 93 39" fill="none" xmlns="http://www.w3.org/2000/svg">
<path d="M83.8565 21.7703V29.8291L76.9371 33.8561L70.016 37.8864L63.0949 33.8561L56.1738 29.8291V21.7703" stroke="#343D47" stroke-width="1.28062"/>
<path fill-rule="evenodd" clip-rule="evenodd" d="M70.0162 21.7718L56.174 13.7146L49.2529 17.7448L63.0951 25.8005L70.0162 21.7718Z" fill="#FEFEFE"/>
<path fill-rule="evenodd" clip-rule="evenodd" d="M70.0162 21.7718L56.174 13.7146L49.2529 17.7448L63.0951 25.8005L70.0162 21.7718Z" stroke="#343D47" stroke-width="1.28062"/>
<path fill-rule="evenodd" clip-rule="evenodd" d="M70.0161 21.7718L83.8567 13.7146L90.7794 17.7448L76.9372 25.8005L70.0161 21.7718Z" fill="#FEFEFE"/>
<path fill-rule="evenodd" clip-rule="evenodd" d="M70.0161 21.7718L83.8567 13.7146L90.7794 17.7448L76.9372 25.8005L70.0161 21.7718Z" stroke="#343D47" stroke-width="1.28062"/>
<path d="M62.3551 10.1162H62.9954V9.00249L62.033 9.5628L62.3551 10.1162ZM56.1741 13.7145L55.6184 14.0327L55.9389 14.5924L56.4962 14.2679L56.1741 13.7145ZM52.7135 7.6716L52.3914 7.11821L51.8419 7.43806L52.1579 7.9898L52.7135 7.6716ZM63.0952 1.62866V0.98835H62.9224L62.773 1.07527L63.0952 1.62866ZM66.5637 1.62866H67.204V0.98835H66.5637V1.62866ZM73.4688 1.62866V0.98835H72.8285V1.62866H73.4688ZM76.9373 1.62866L77.2594 1.07527L77.1101 0.98835H76.9373V1.62866ZM87.3189 7.6716L87.8745 7.98991L88.1907 7.43812L87.6411 7.11821L87.3189 7.6716ZM83.8568 13.7145L83.5347 14.2679L84.0919 14.5923L84.4124 14.0328L83.8568 13.7145ZM77.6758 10.1162L77.9979 9.5628L77.0355 9.00249V10.1162H77.6758ZM69.3759 21.7718V37.8863H70.6566V21.7718H69.3759ZM62.9954 17.3129V10.1162H61.7148V17.3129H62.9954ZM62.033 9.5628L55.8519 13.1612L56.4962 14.2679L62.6773 10.6695L62.033 9.5628ZM56.7297 13.3963L53.2692 7.3534L52.1579 7.9898L55.6184 14.0327L56.7297 13.3963ZM53.0357 8.22499L63.4173 2.18205L62.773 1.07527L52.3914 7.11821L53.0357 8.22499ZM63.0952 2.26897H66.5637V0.98835H63.0952V2.26897ZM65.9234 1.62866C65.9234 3.89984 67.7508 5.74971 70.0162 5.74971V4.46908C68.4679 4.46908 67.204 3.2024 67.204 1.62866H65.9234ZM70.0162 5.74971C72.2817 5.74971 74.1091 3.89984 74.1091 1.62866H72.8285C72.8285 3.2024 71.5646 4.46908 70.0162 4.46908V5.74971ZM73.4688 2.26897H76.9373V0.98835H73.4688V2.26897ZM76.6152 2.18205L86.9968 8.22499L87.6411 7.11821L77.2594 1.07527L76.6152 2.18205ZM86.7634 7.35329L83.3012 13.3962L84.4124 14.0328L87.8745 7.98991L86.7634 7.35329ZM84.179 13.1612L77.9979 9.5628L77.3536 10.6695L83.5347 14.2679L84.179 13.1612ZM77.0355 10.1162V17.3129H78.3161V10.1162H77.0355ZM66.5637 2.26897H73.4688V0.98835H66.5637V2.26897ZM36.0234 19.3584H44.898V18.0778H36.0234V19.3584Z" fill="#343D47"/>
<path fill-rule="evenodd" clip-rule="evenodd" d="M29.8462 18.7209L36.0256 15.1226V22.3193L29.8462 18.7209Z" fill="#343D47"/>
<path d="M11.3576 10.6023C16.7197 10.6023 21.075 14.9871 21.075 20.4042H22.3556C22.3556 14.2898 17.4369 9.32167 11.3576 9.32167V10.6023ZM21.075 20.4042C21.075 25.8228 16.7198 30.2061 11.3576 30.2061V31.4867C17.4369 31.4867 22.3556 26.5203 22.3556 20.4042H21.075ZM11.3576 30.2061C5.99703 30.2061 1.64031 25.8228 1.64031 20.4042H0.359688C0.359688 26.5203 5.28009 31.4867 11.3576 31.4867V30.2061ZM1.64031 20.4042C1.64031 14.9871 5.99709 10.6023 11.3576 10.6023V9.32167C5.28003 9.32167 0.359688 14.2897 0.359688 20.4042H1.64031ZM21.0542 0.000428784L21.075 31.0305L22.3556 31.0296L22.3348 -0.000428784L21.0542 0.000428784ZM22.3556 31.0296L22.3348 -0.000428784L21.0542 0.000428784L21.075 31.0305L22.3556 31.0296ZM11.1786 5.25873H26.9836V3.9781H11.1786V5.25873ZM26.9836 3.9781H11.1786V5.25873H26.9836V3.9781ZM2.05335 36.3533H22.4617V35.0726H2.05335V36.3533ZM22.4617 35.0726H2.05335V36.3533H22.4617V35.0726Z" fill="#343D47"/>
</svg>
