<svg width="82" height="56" viewBox="0 0 82 56" fill="none" xmlns="http://www.w3.org/2000/svg">
<path fill-rule="evenodd" clip-rule="evenodd" d="M58.5613 54.7896H23.237V20.6223L8.98702 28.8855L1.00879 15.0065L24.9435 1.12744H32.9407C32.9407 5.54125 36.504 9.12032 40.9 9.12032C45.2943 9.12032 48.8592 5.54125 48.8592 1.12744H56.8564L80.7911 15.0065L72.8113 28.8855L58.5613 20.6223V54.7896Z" fill="#FEFEFE"/>
<path fill-rule="evenodd" clip-rule="evenodd" d="M58.5613 54.7896H23.237V20.6223L8.98702 28.8855L1.00879 15.0065L24.9435 1.12744H32.9407C32.9407 5.54125 36.504 9.12032 40.9 9.12032C45.2943 9.12032 48.8592 5.54125 48.8592 1.12744H56.8564L80.7911 15.0065L72.8113 28.8855L58.5613 20.6223V54.7896Z" stroke="#343D47" stroke-width="1.28062"/>
<path d="M32.9409 1.12744H48.8594" stroke="#343D47" stroke-width="1.28062"/>
<path fill-rule="evenodd" clip-rule="evenodd" d="M43.6436 19.9907V17.2866C43.6436 16.8559 43.9945 16.5027 44.424 16.5027H44.652C45.0815 16.5027 45.4324 16.8559 45.4324 17.2866V19.9907H44.9461V18.7348H44.1299V19.9907H43.6436ZM50.2823 18.2471H51.1328V18.7348H50.2823V19.9907H49.796V17.2866C49.796 16.8559 50.1469 16.5027 50.5757 16.5027H51.1678V16.9912H50.5757C50.4154 16.9912 50.2823 17.1248 50.2823 17.2866V18.2471ZM52.1474 18.2471H52.9637V17.2866C52.9637 17.1248 52.8306 16.9912 52.6703 16.9912H52.4416C52.2805 16.9912 52.1474 17.1248 52.1474 17.2866V18.2471ZM52.9637 18.7348H52.1474V19.9907H51.6611V17.2866C51.6611 16.8559 52.0121 16.5027 52.4416 16.5027H52.6703C53.0991 16.5027 53.45 16.8559 53.45 17.2866V19.9907H52.9637V18.7348ZM44.9461 18.2471V17.2866C44.9461 17.1248 44.8131 16.9912 44.652 16.9912H44.424C44.2629 16.9912 44.1299 17.1248 44.1299 17.2866V18.2471H44.9461ZM42.4235 19.9907C41.994 19.9907 41.6431 19.639 41.6431 19.2076V17.2866C41.6431 16.8559 41.994 16.5027 42.4235 16.5027H43.1362V16.9912H42.4235C42.2624 16.9912 42.1294 17.1248 42.1294 17.2866V19.2076C42.1294 19.3686 42.2624 19.5023 42.4235 19.5023H43.1362V19.9907H42.4235ZM46.1319 19.9907V16.5027C46.4689 16.5027 46.8034 16.5027 47.1404 16.5027C47.5691 16.5027 47.92 16.8559 47.92 17.2866V19.9907H47.4345V17.2866C47.4345 17.1248 47.3014 16.9912 47.1404 16.9912C46.9661 16.9912 46.7925 16.9912 46.6182 16.9912V19.9907H46.1319ZM48.6164 19.9907H49.1027V16.5027H48.6164V19.9907Z" fill="#343D47"/>
</svg>
