<svg width="77" height="49" viewBox="0 0 77 49" fill="none" xmlns="http://www.w3.org/2000/svg">
<path d="M8.56427 1.71209H68.305V0.431465H8.56427V1.71209ZM68.305 1.71209C72.0575 1.71209 75.1323 4.78947 75.1323 8.55368H76.4129C76.4129 4.08432 72.7668 0.431465 68.305 0.431465V1.71209ZM75.1323 8.55368V40.3517H76.4129V8.55368H75.1323ZM75.1323 40.3517C75.1323 44.1143 72.0574 47.1933 68.305 47.1933V48.4739C72.7669 48.4739 76.4129 44.8193 76.4129 40.3517H75.1323ZM68.305 47.1933H8.56427V48.4739H68.305V47.1933ZM8.56427 47.1933C4.81188 47.1933 1.73699 44.1143 1.73699 40.3517H0.456367C0.456367 44.8193 4.1023 48.4739 8.56427 48.4739V47.1933ZM1.73699 40.3517V8.55368H0.456367V40.3517H1.73699ZM1.73699 8.55368C1.73699 4.78947 4.81179 1.71209 8.56427 1.71209V0.431465C4.1024 0.431465 0.456367 4.08432 0.456367 8.55368H1.73699ZM45.3093 25.3407C47.6027 25.3407 49.4624 27.2022 49.4624 29.503H50.743C50.743 26.4972 48.3123 24.0601 45.3093 24.0601V25.3407ZM49.4624 29.503C49.4624 31.8019 47.6029 33.6636 45.3093 33.6636V34.9442C48.3122 34.9442 50.743 32.5072 50.743 29.503H49.4624ZM45.3093 33.6636C43.0173 33.6636 41.1562 31.8018 41.1562 29.503H39.8756C39.8756 32.5073 42.3083 34.9442 45.3093 34.9442V33.6636ZM41.1562 29.503C41.1562 27.2023 43.0174 25.3407 45.3093 25.3407V24.0601C42.3082 24.0601 39.8756 26.4971 39.8756 29.503H41.1562ZM31.5599 15.2401C33.852 15.2401 35.7131 17.1019 35.7131 19.4007H36.9937C36.9937 16.3963 34.5609 13.9595 31.5599 13.9595V15.2401ZM35.7131 19.4007C35.7131 21.6995 33.852 23.5613 31.5599 23.5613V24.8419C34.5609 24.8419 36.9937 22.405 36.9937 19.4007H35.7131ZM31.5599 23.5613C29.2679 23.5613 27.4068 21.6995 27.4068 19.4007H26.1262C26.1262 22.405 28.559 24.8419 31.5599 24.8419V23.5613ZM27.4068 19.4007C27.4068 17.1019 29.2679 15.2401 31.5599 15.2401V13.9595C28.559 13.9595 26.1262 16.3963 26.1262 19.4007H27.4068ZM47.4721 8.11558L28.2984 40.1319L29.3971 40.7898L48.5708 8.77355L47.4721 8.11558ZM29.3971 40.7898L48.5708 8.77355L47.4721 8.11558L28.2984 40.1319L29.3971 40.7898Z" fill="#343D47"/>
</svg>
